<svg xmlns="http://www.w3.org/2000/svg" width="25.676" height="25.502" viewBox="0 0 25.676 25.502">
  <g id="Mobile_Number_grey" data-name="Mobile Number grey" transform="translate(0.236 0.25)">
    <g id="Group_73" data-name="Group 73" transform="translate(0)">
      <path id="Path_138" data-name="Path 138" d="M195.393,96.777a3.014,3.014,0,0,1,4.26-.048l3.492,3.5a3.033,3.033,0,0,1-.075,4.29l-1.1,1.027a6.853,6.853,0,0,1-1.729.983,7.117,7.117,0,0,1-1.766.441,10.643,10.643,0,0,1-4.146-.6,22.461,22.461,0,0,1-8.883-5.786c-4.989-5-6.879-8.816-6.368-13.058a7.171,7.171,0,0,1,.436-1.755,6.965,6.965,0,0,1,1.053-1.816l.983-1.044a3.008,3.008,0,0,1,4.259-.049l3.493,3.5a3.019,3.019,0,0,1-.047,4.259l-.58.584-.542.542a14.948,14.948,0,0,0,6.141,6.154Zm.932.929-1.471,1.474a.658.658,0,0,1-.785.111,16.594,16.594,0,0,1-7.326-7.341.659.659,0,0,1,.109-.784l.893-.893.58-.584a1.705,1.705,0,0,0,.047-2.4l-3.493-3.5a1.69,1.69,0,0,0-2.383.035l-.932.987a5.577,5.577,0,0,0-.821,1.431,5.808,5.808,0,0,0-.355,1.433c-.454,3.772,1.259,7.236,5.991,11.976a21.188,21.188,0,0,0,8.354,5.463,9.419,9.419,0,0,0,3.6.548,5.755,5.755,0,0,0,1.433-.359,5.542,5.542,0,0,0,1.351-.755l1.039-.973a1.715,1.715,0,0,0,.059-2.418l-3.491-3.5A1.7,1.7,0,0,0,196.325,97.707Z" transform="translate(-179 -82)" fill="#d2d0e1" stroke="#d2d0e1" stroke-linecap="round" stroke-linejoin="round" stroke-width="0.5"/>
    </g>
  </g>
</svg>
