<svg xmlns="http://www.w3.org/2000/svg" width="577.749" height="566.591" viewBox="0 0 577.749 566.591">
  <g id="Login_Page_3_Illustration" data-name="Login Page 3 Illustration" transform="translate(-178.547 -142.574)">
    <g id="window" transform="translate(268.905 255.831)">
      <rect id="Rectangle_33" data-name="Rectangle 33" width="371.363" height="369.932" transform="translate(0)" fill="#edd41a"/>
    </g>
    <g id="shadow" transform="translate(155.384 502.9)">
      <path id="shadow-2" data-name="shadow" d="M158.065,2238.023H643.629a3.027,3.027,0,0,0,2.681-3.281h0c0-1.812-1.2-3.281-2.681-3.281H158.065c-1.481,0-2.681,1.469-2.681,3.281h0A3.027,3.027,0,0,0,158.065,2238.023Z" transform="translate(-45.398 -2031.757)" fill="#2d5b98"/>
    </g>
    <g id="system" transform="translate(178.547 142.574)">
      <g id="Group_198" data-name="Group 198" transform="translate(0)">
        <g id="Group_194" data-name="Group 194" transform="translate(0.676)">
          <circle id="Ellipse_20" data-name="Ellipse 20" cx="142.041" cy="142.041" r="142.041" transform="translate(39.9 35.077)" fill="none" stroke="#2e77e6" stroke-miterlimit="10" stroke-width="2" stroke-dasharray="13.096 13.096"/>
          <path id="Path_227" data-name="Path 227" d="M791.967,690.87a25.023,25.023,0,0,0-47.847-13.118,17.473,17.473,0,0,0-29.109,13.055h-3.265a16.94,16.94,0,0,0-16.89,16.89h0a16.939,16.939,0,0,0,16.89,16.89h78.975a16.939,16.939,0,0,0,16.89-16.89h0A16.934,16.934,0,0,0,791.967,690.87Z" transform="translate(-574.063 -523.076)" fill="#fff"/>
          <g id="Group_171" data-name="Group 171" transform="translate(121.258 249.935)">
            <rect id="Rectangle_39" data-name="Rectangle 39" width="118.623" height="101.593" rx="24.034" transform="translate(0 0)" fill="#dae3ef"/>
            <g id="Group_170" data-name="Group 170" transform="translate(19.459 8.05)">
              <g id="Group_169" data-name="Group 169">
                <path id="Path_228" data-name="Path 228" d="M844.94,1280.4H773.429a4.267,4.267,0,0,1-4.254-4.255h0a4.267,4.267,0,0,1,4.254-4.255H844.94a4.267,4.267,0,0,1,4.255,4.255h0A4.267,4.267,0,0,1,844.94,1280.4Z" transform="translate(-769.175 -1227.103)" fill="#fff"/>
                <path id="Path_229" data-name="Path 229" d="M844.94,1331.509H773.429a4.267,4.267,0,0,1-4.254-4.254h0a4.267,4.267,0,0,1,4.254-4.255H844.94a4.267,4.267,0,0,1,4.255,4.255h0A4.267,4.267,0,0,1,844.94,1331.509Z" transform="translate(-769.175 -1264.514)" fill="#fff"/>
                <g id="Group_162" data-name="Group 162" transform="translate(14.612 61.62)">
                  <path id="Path_230" data-name="Path 230" d="M826.672,1336.187a1.5,1.5,0,1,1-1.5-1.5A1.5,1.5,0,0,1,826.672,1336.187Z" transform="translate(-823.676 -1334.689)" fill="#80b2ff"/>
                  <path id="Path_231" data-name="Path 231" d="M845.828,1336.187a1.5,1.5,0,1,1-1.5-1.5A1.5,1.5,0,0,1,845.828,1336.187Z" transform="translate(-837.696 -1334.689)" fill="#80b2ff"/>
                  <path id="Path_232" data-name="Path 232" d="M864.984,1336.187a1.5,1.5,0,1,1-1.5-1.5A1.5,1.5,0,0,1,864.984,1336.187Z" transform="translate(-851.717 -1334.689)" fill="#80b2ff"/>
                  <path id="Path_233" data-name="Path 233" d="M884.141,1336.187a1.5,1.5,0,1,1-1.5-1.5A1.5,1.5,0,0,1,884.141,1336.187Z" transform="translate(-865.738 -1334.689)" fill="#80b2ff"/>
                  <path id="Path_234" data-name="Path 234" d="M903.3,1336.187a1.5,1.5,0,1,1-1.5-1.5A1.5,1.5,0,0,1,903.3,1336.187Z" transform="translate(-879.758 -1334.689)" fill="#80b2ff"/>
                  <path id="Path_235" data-name="Path 235" d="M922.453,1336.187a1.5,1.5,0,1,1-1.5-1.5A1.5,1.5,0,0,1,922.453,1336.187Z" transform="translate(-893.778 -1334.689)" fill="#80b2ff"/>
                  <path id="Path_236" data-name="Path 236" d="M941.609,1336.187a1.5,1.5,0,1,1-1.5-1.5A1.5,1.5,0,0,1,941.609,1336.187Z" transform="translate(-907.799 -1334.689)" fill="#80b2ff"/>
                  <path id="Path_237" data-name="Path 237" d="M960.766,1336.187a1.5,1.5,0,1,1-1.5-1.5A1.5,1.5,0,0,1,960.766,1336.187Z" transform="translate(-921.82 -1334.689)" fill="#80b2ff"/>
                  <path id="Path_238" data-name="Path 238" d="M979.922,1336.187a1.5,1.5,0,1,1-1.5-1.5A1.5,1.5,0,0,1,979.922,1336.187Z" transform="translate(-935.84 -1334.689)" fill="#80b2ff"/>
                </g>
                <g id="Group_165" data-name="Group 165" transform="translate(23.595)">
                  <circle id="Ellipse_21" data-name="Ellipse 21" cx="16.438" cy="16.438" r="16.438" fill="#fff"/>
                  <g id="Group_164" data-name="Group 164" transform="translate(7.3 5.406)">
                    <g id="Group_163" data-name="Group 163" transform="translate(3.977)">
                      <path id="Path_239" data-name="Path 239" d="M904.432,1135.384a5.193,5.193,0,0,0,4.033-1.975,5.063,5.063,0,0,0,1.111-3.21,5.165,5.165,0,1,0-10.33,0,5.057,5.057,0,0,0,1.111,3.21A5.212,5.212,0,0,0,904.432,1135.384Z" transform="translate(-899.247 -1125.013)" fill="#4224d1"/>
                    </g>
                    <path id="Path_240" data-name="Path 240" d="M902.687,1176.851c0,3.272-18.273,3.272-18.273,0l.006-3.813c.722-5.213,16.782-5.432,18.271,0Z" transform="translate(-884.414 -1157.24)" fill="#4224d1"/>
                  </g>
                </g>
                <path id="Path_241" data-name="Path 241" d="M788.44,1330.75v-.228a1.674,1.674,0,1,0-3.348,0v.228h-.254v3.017c0,.522,3.867.522,3.867,0v-3.017Zm-2.752-.228a1.083,1.083,0,1,1,2.166,0v.228h-2.166Zm1.362,1.748v.871a.277.277,0,0,1-.291.268.258.258,0,0,1-.268-.268v-.871a.508.508,0,0,1-.269-.447.536.536,0,1,1,1.073,0A.538.538,0,0,1,787.05,1332.27Z" transform="translate(-780.638 -1268.794)" fill="#5896fa"/>
                <g id="Group_168" data-name="Group 168" transform="translate(4.178 46.54)">
                  <g id="Group_167" data-name="Group 167">
                    <g id="Group_166" data-name="Group 166" transform="translate(0.859)">
                      <path id="Path_242" data-name="Path 242" d="M789.057,1280.631a1.1,1.1,0,0,0,.851-.417,1.069,1.069,0,0,0,.234-.677,1.09,1.09,0,1,0-2.18,0,1.065,1.065,0,0,0,.235.677A1.1,1.1,0,0,0,789.057,1280.631Z" transform="translate(-787.963 -1278.442)" fill="#5896fa"/>
                    </g>
                    <path id="Path_243" data-name="Path 243" d="M788.635,1289.38c0,.691-3.876.691-3.876,0l.021-.8c.152-1.1,3.541-1.146,3.856,0Z" transform="translate(-784.759 -1285.242)" fill="#5896fa"/>
                  </g>
                  <path id="Path_244" data-name="Path 244" d="M839.284,1285.6H823.613a1.252,1.252,0,0,1-1.249-1.248h0a1.252,1.252,0,0,1,1.249-1.249h15.671a1.252,1.252,0,0,1,1.249,1.249h0A1.252,1.252,0,0,1,839.284,1285.6Z" transform="translate(-812.282 -1281.851)" fill="#80b2ff"/>
                  <path id="Path_245" data-name="Path 245" d="M916.378,1285.6H900.707a1.252,1.252,0,0,1-1.249-1.248h0a1.252,1.252,0,0,1,1.249-1.249h15.671a1.252,1.252,0,0,1,1.249,1.249h0A1.252,1.252,0,0,1,916.378,1285.6Z" transform="translate(-868.707 -1281.851)" fill="#80b2ff"/>
                </g>
              </g>
              <rect id="Rectangle_40" data-name="Rectangle 40" width="21.492" height="7.291" rx="3.645" transform="translate(27.405 72.982)" fill="#1251b3"/>
            </g>
          </g>
          <g id="Group_179" data-name="Group 179" transform="translate(0 170.963)">
            <g id="Group_177" data-name="Group 177">
              <g id="Group_173" data-name="Group 173">
                <g id="Group_172" data-name="Group 172">
                  <path id="Path_246" data-name="Path 246" d="M244.649,850.208h0c0-.117,0-.169,0-.181C244.65,850.049,244.649,850.208,244.649,850.208Z" transform="translate(-244.557 -831.322)" fill="#d9ffff"/>
                  <path id="Path_247" data-name="Path 247" d="M244.649,850.208h0c0-.117,0-.169,0-.181C244.65,850.049,244.649,850.208,244.649,850.208Z" transform="translate(-244.557 -831.322)" fill="#d9ffff"/>
                  <path id="Path_248" data-name="Path 248" d="M505.384,851.373s0-.159,0-.18c0,.012,0,.064,0,.18Z" transform="translate(-435.389 -832.176)" fill="#d9ffff"/>
                  <path id="Path_249" data-name="Path 249" d="M505.384,851.373s0-.159,0-.18c0,.012,0,.064,0,.18Z" transform="translate(-435.389 -832.176)" fill="#d9ffff"/>
                  <path id="Path_250" data-name="Path 250" d="M279.491,780.259c-8.146,8.726-21.144,15.877-35.054,18.924,0,.929-.027,6.076-.133,29.8-.142,31.646,29.975,47.11,34.651,49.483,4.531-2.085,35.027-17.525,35.169-49.171.106-23.723.129-28.87.133-29.8C300.376,796.324,287.559,789.057,279.491,780.259Z" transform="translate(-244.304 -780.259)" fill="#fff"/>
                </g>
              </g>
              <g id="Group_176" data-name="Group 176" transform="translate(3.803 5.719)">
                <g id="Group_174" data-name="Group 174">
                  <path id="Path_251" data-name="Path 251" d="M289.789,801.592c-7.977,7.318-19.028,13.069-31.181,16.2l-.12,26.812c-.055,12.268,4.819,23.367,14.487,32.989A69.3,69.3,0,0,0,289.4,889.6c.146-.074.306-.157.463-.239v-87.71C289.836,801.633,289.812,801.613,289.789,801.592Z" transform="translate(-258.488 -801.592)" fill="#4224d1"/>
                </g>
                <g id="Group_175" data-name="Group 175" transform="translate(31.37 0.062)">
                  <path id="Path_252" data-name="Path 252" d="M375.5,801.825v87.71a69.331,69.331,0,0,0,16.064-11.619c9.753-9.535,14.726-20.589,14.781-32.858l.12-26.813C394.374,815.011,383.4,809.184,375.5,801.825Z" transform="translate(-375.499 -801.825)" fill="#6a4eee"/>
                </g>
              </g>
            </g>
            <g id="Group_178" data-name="Group 178" transform="translate(21.053 29.901)">
              <path id="Path_253" data-name="Path 253" d="M322.831,945.973v20.772c0,2.312,28.24,2.312,28.24,0V945.973ZM338.38,957v5.887a1.429,1.429,0,1,1-2.857,0v-5.9a3.474,3.474,0,1,1,2.857.013Z" transform="translate(-322.831 -931.446)" fill="#fff"/>
              <path id="Path_254" data-name="Path 254" d="M355.353,904.834h-2.859v-1.4a8.789,8.789,0,1,0-17.577,0v1.4h-2.859v-1.4a11.647,11.647,0,1,1,23.295,0Z" transform="translate(-329.584 -891.788)" fill="#fff"/>
            </g>
          </g>
          <g id="Group_184" data-name="Group 184" transform="translate(193.203)">
            <g id="Group_180" data-name="Group 180">
              <rect id="Rectangle_41" data-name="Rectangle 41" width="51.013" height="63.676" fill="#4224d1"/>
            </g>
            <g id="Group_181" data-name="Group 181" transform="translate(6.616 6.575)">
              <rect id="Rectangle_42" data-name="Rectangle 42" width="51.013" height="63.676" fill="#fff" stroke="#6a4eee" stroke-miterlimit="10" stroke-width="6.341"/>
            </g>
            <g id="Group_182" data-name="Group 182" transform="translate(15.017 13.031)">
              <rect id="Rectangle_43" data-name="Rectangle 43" width="51.013" height="63.676" fill="#fff" stroke="#4224d1" stroke-miterlimit="10" stroke-width="6.341"/>
            </g>
            <g id="Group_183" data-name="Group 183" transform="translate(21.13 19.606)">
              <rect id="Rectangle_44" data-name="Rectangle 44" width="51.013" height="63.676" fill="#6a4eee"/>
              <rect id="Rectangle_45" data-name="Rectangle 45" width="26.388" height="4.141" transform="translate(16.689 10.454)" fill="#4224d1"/>
              <rect id="Rectangle_46" data-name="Rectangle 46" width="34.191" height="4.141" transform="translate(8.885 20.184)" fill="#4224d1"/>
              <rect id="Rectangle_47" data-name="Rectangle 47" width="34.191" height="4.141" transform="translate(8.885 29.914)" fill="#4224d1"/>
              <rect id="Rectangle_48" data-name="Rectangle 48" width="34.191" height="4.141" transform="translate(8.885 39.644)" fill="#4224d1"/>
              <rect id="Rectangle_49" data-name="Rectangle 49" width="34.191" height="4.141" transform="translate(8.885 49.374)" fill="#4224d1"/>
            </g>
          </g>
          <g id="Group_187" data-name="Group 187" transform="translate(8.471 32.046)">
            <circle id="Ellipse_22" data-name="Ellipse 22" cx="18.018" cy="18.018" r="18.018" transform="translate(51.232 50.801) rotate(-77.096)" fill="#fff"/>
            <g id="Group_185" data-name="Group 185" transform="translate(35.569)">
              <path id="Path_255" data-name="Path 255" d="M474.247,316.5a33.058,33.058,0,0,0,4.416-12.286l1.342.2,2.65.39.034,0a37.01,37.01,0,0,0-.7-14.4l-3.943.977a33.067,33.067,0,0,0-5.578-11.8l3.268-2.429a36.851,36.851,0,0,0-10.67-9.7l-2.105,3.491a33,33,0,0,0-12.286-4.416l.589-4.027a37.246,37.246,0,0,0-14.4.7l.977,3.943a33.071,33.071,0,0,0-11.8,5.577l-2.429-3.268a36.859,36.859,0,0,0-9.7,10.67l3.491,2.105A33,33,0,0,0,413,294.514l-2.849-.42-1.165-.161-.013-.008a37.254,37.254,0,0,0,.7,14.395l3.943-.976a33.131,33.131,0,0,0,5.59,11.811l-3.268,2.429a36.78,36.78,0,0,0,10.656,9.69l2.105-3.491a33.082,33.082,0,0,0,12.3,4.424l-.462,3.129-.127.9a37.178,37.178,0,0,0,14.382-.7l-.976-3.943A33.415,33.415,0,0,0,465.632,326l2.429,3.268a37.056,37.056,0,0,0,9.677-10.665Zm-37.724-1.7a18.013,18.013,0,1,1,24.725-6.134A18.011,18.011,0,0,1,436.523,314.8Z" transform="translate(-408.57 -262.106)" fill="#dae3ef"/>
            </g>
            <g id="Group_186" data-name="Group 186" transform="translate(0 42.404)">
              <path id="Path_256" data-name="Path 256" d="M309.714,429.872A17.409,17.409,0,0,0,304.868,425l.4-.594.784-1.172.009-.016a19.486,19.486,0,0,0-7-2.922l-.427,2.1a17.415,17.415,0,0,0-6.873-.015l-.417-2.1a19.4,19.4,0,0,0-7.023,2.883l1.184,1.79a17.374,17.374,0,0,0-4.876,4.845l-1.782-1.19a19.608,19.608,0,0,0-2.922,7l2.1.427A17.414,17.414,0,0,0,278,442.9l-2.1.417a19.408,19.408,0,0,0,2.883,7.023l1.79-1.184a17.371,17.371,0,0,0,4.845,4.876l-.843,1.26-.34.517-.007,0a19.614,19.614,0,0,0,7,2.922l.427-2.1a17.443,17.443,0,0,0,6.88.01l.417,2.1a19.369,19.369,0,0,0,7.016-2.878l-1.184-1.79a17.419,17.419,0,0,0,4.883-4.849l1.383.927.4.263a19.577,19.577,0,0,0,2.915-7l-2.1-.427a17.6,17.6,0,0,0,.017-6.884l2.1-.417a19.508,19.508,0,0,0-2.885-7.012Zm-9.335,17.555a9.484,9.484,0,1,1,2.67-13.144A9.484,9.484,0,0,1,300.379,447.427Z" transform="translate(-275.899 -420.271)" fill="#4224d1"/>
            </g>
          </g>
          <g id="Group_188" data-name="Group 188" transform="translate(291.488 92.473)">
            <rect id="Rectangle_50" data-name="Rectangle 50" width="47.141" height="28.192" rx="6.228" transform="translate(0)" fill="#dae3ef"/>
            <rect id="Rectangle_51" data-name="Rectangle 51" width="47.141" height="4.865" transform="translate(0 5.324)" fill="#afc1d8"/>
            <path id="Path_257" data-name="Path 257" d="M1350.721,572.477h-6.932a.8.8,0,0,0-.8.8h0a.8.8,0,0,0,.8.8h6.932a.8.8,0,0,0,.8-.8h0A.8.8,0,0,0,1350.721,572.477Z" transform="translate(-1339.923 -549.694)" fill="#6a4eee"/>
            <path id="Path_258" data-name="Path 258" d="M1390.478,572.477h-6.931a.8.8,0,0,0-.8.8h0a.8.8,0,0,0,.8.8h6.931a.8.8,0,0,0,.8-.8h0A.8.8,0,0,0,1390.478,572.477Z" transform="translate(-1369.021 -549.694)" fill="#6a4eee"/>
            <path id="Path_259" data-name="Path 259" d="M1430.236,572.477H1423.3a.8.8,0,0,0-.8.8h0a.8.8,0,0,0,.8.8h6.931a.8.8,0,0,0,.8-.8h0A.8.8,0,0,0,1430.236,572.477Z" transform="translate(-1398.12 -549.694)" fill="#6a4eee"/>
            <path id="Path_260" data-name="Path 260" d="M1469.993,572.477h-6.931a.8.8,0,0,0-.8.8h0a.8.8,0,0,0,.8.8h6.931a.8.8,0,0,0,.8-.8h0A.8.8,0,0,0,1469.993,572.477Z" transform="translate(-1427.218 -549.694)" fill="#6a4eee"/>
            <path id="Path_261" data-name="Path 261" d="M1342.372,492.833h0a.88.88,0,0,0-.88.88v.309a.88.88,0,0,0,.88.88h0a.88.88,0,0,0,.88-.88v-.309A.88.88,0,0,0,1342.372,492.833Z" transform="translate(-1338.825 -491.402)" fill="#6a4eee"/>
            <path id="Path_262" data-name="Path 262" d="M1351.852,493.868h0a1.035,1.035,0,0,0,1.035,1.035h3.669a1.035,1.035,0,0,0,1.035-1.035h0a1.035,1.035,0,0,0-1.035-1.035h-3.669A1.035,1.035,0,0,0,1351.852,493.868Z" transform="translate(-1346.408 -491.402)" fill="#6a4eee"/>
            <rect id="Rectangle_52" data-name="Rectangle 52" width="7.489" height="6.836" rx="3.418" transform="translate(3.588 12.806)" fill="#afc1d8"/>
          </g>
          <g id="Group_193" data-name="Group 193" transform="translate(286.129 170.809)">
            <g id="Group_189" data-name="Group 189" transform="translate(0 15.801)">
              <path id="Path_263" data-name="Path 263" d="M1345.037,844.49v-3.22a2.647,2.647,0,0,0-2.647-2.648H1314.2a2.648,2.648,0,0,0-2.648,2.648V898.2h72.911V844.49Z" transform="translate(-1311.555 -838.622)" fill="#4224d1"/>
              <path id="Path_264" data-name="Path 264" d="M1387.5,867.808H1316l-4.447,51.749h72.555Z" transform="translate(-1311.555 -859.983)" fill="#fff"/>
              <path id="Path_265" data-name="Path 265" d="M1384.466,914.216h-72.911l7.737-51.105a3.057,3.057,0,0,1,3.023-2.6h66.726a3.057,3.057,0,0,1,3.023,3.515Z" transform="translate(-1311.555 -854.643)" fill="#6a4eee"/>
            </g>
            <g id="Group_192" data-name="Group 192" transform="translate(56.918)">
              <g id="Group_190" data-name="Group 190">
                <circle id="Ellipse_23" data-name="Ellipse 23" cx="16.706" cy="16.706" r="16.706" transform="translate(0 23.626) rotate(-45)" fill="#4224d1"/>
                <path id="Path_266" data-name="Path 266" d="M1564.7,837.85a17.317,17.317,0,1,1,17.319-17.318A17.339,17.339,0,0,1,1564.7,837.85Zm0-33.412a16.1,16.1,0,1,0,16.094,16.094A16.111,16.111,0,0,0,1564.7,804.439Z" transform="translate(-1541.074 -796.908)" fill="#fff"/>
              </g>
              <g id="Group_191" data-name="Group 191" transform="translate(15.584 12.33)">
                <path id="Path_267" data-name="Path 267" d="M1581.988,856.532v11.829c0,1.317,16.083,1.317,16.083,0V856.532Zm8.855,6.282v3.353a.814.814,0,1,1-1.627,0v-3.36a1.978,1.978,0,1,1,1.627.007Z" transform="translate(-1581.988 -848.259)" fill="#fff"/>
                <path id="Path_268" data-name="Path 268" d="M1600.509,833.1h-1.628v-.8a5,5,0,1,0-10.01,0v.8h-1.628v-.8a6.633,6.633,0,1,1,13.266,0Z" transform="translate(-1585.834 -825.675)" fill="#fff"/>
              </g>
            </g>
          </g>
        </g>
        <circle id="Ellipse_24" data-name="Ellipse 24" cx="6.396" cy="6.396" r="6.396" transform="translate(302.944 48.23)" fill="#dae3ef"/>
        <circle id="Ellipse_25" data-name="Ellipse 25" cx="6.396" cy="6.396" r="6.396" transform="translate(134.007 83.711) rotate(-80.25)" fill="#dae3ef"/>
        <circle id="Ellipse_26" data-name="Ellipse 26" cx="3.346" cy="3.346" r="3.346" transform="translate(350.842 160.3)" fill="#fff"/>
        <circle id="Ellipse_27" data-name="Ellipse 27" cx="3.346" cy="3.346" r="3.346" transform="translate(0 172.412) rotate(-76.789)" fill="#6a4eee"/>
        <circle id="Ellipse_28" data-name="Ellipse 28" cx="6.396" cy="6.396" r="6.396" transform="translate(47.826 288.869) rotate(-25.745)" fill="#dae3ef"/>
        <g id="Group_195" data-name="Group 195" transform="translate(151.958 0.919)">
          <path id="Path_269" data-name="Path 269" d="M831.812,160.083h0a1.108,1.108,0,0,1-1.108-1.108V147.111A1.108,1.108,0,0,1,831.812,146h0a1.108,1.108,0,0,1,1.108,1.108v11.864A1.108,1.108,0,0,1,831.812,160.083Z" transform="translate(-824.772 -146.003)" fill="#6a4eee"/>
          <path id="Path_270" data-name="Path 270" d="M808.578,169.237h0a1.108,1.108,0,0,1,1.108-1.108H821.55a1.108,1.108,0,0,1,1.108,1.108h0a1.108,1.108,0,0,1-1.108,1.108H809.686A1.108,1.108,0,0,1,808.578,169.237Z" transform="translate(-808.578 -162.197)" fill="#6a4eee"/>
        </g>
        <g id="Group_196" data-name="Group 196" transform="translate(278.084 153.259)">
          <path id="Path_271" data-name="Path 271" d="M1302.26,728.307h0a1.108,1.108,0,0,1-1.108-1.108V715.334a1.108,1.108,0,0,1,1.108-1.108h0a1.108,1.108,0,0,1,1.108,1.108V727.2A1.108,1.108,0,0,1,1302.26,728.307Z" transform="translate(-1295.22 -714.226)" fill="#fff"/>
          <path id="Path_272" data-name="Path 272" d="M1279.025,737.461h0a1.108,1.108,0,0,1,1.108-1.108H1292a1.108,1.108,0,0,1,1.108,1.108h0a1.108,1.108,0,0,1-1.108,1.108h-11.864A1.108,1.108,0,0,1,1279.025,737.461Z" transform="translate(-1279.025 -730.421)" fill="#fff"/>
        </g>
        <g id="Group_197" data-name="Group 197" transform="translate(266.022 309.523)">
          <path id="Path_273" data-name="Path 273" d="M1257.267,1311.165h0a1.108,1.108,0,0,1-1.108-1.108v-11.864a1.108,1.108,0,0,1,1.108-1.108h0a1.108,1.108,0,0,1,1.108,1.108v11.864A1.108,1.108,0,0,1,1257.267,1311.165Z" transform="translate(-1250.227 -1297.085)" fill="#fff"/>
          <path id="Path_274" data-name="Path 274" d="M1234.033,1320.319h0a1.108,1.108,0,0,1,1.108-1.108h11.864a1.108,1.108,0,0,1,1.108,1.108h0a1.108,1.108,0,0,1-1.108,1.108h-11.864A1.108,1.108,0,0,1,1234.033,1320.319Z" transform="translate(-1234.033 -1313.279)" fill="#fff"/>
        </g>
        <circle id="Ellipse_29" data-name="Ellipse 29" cx="3.547" cy="3.547" r="3.547" transform="translate(170.769 231.5)" fill="none" stroke="#fff" stroke-miterlimit="10" stroke-width="4.226"/>
      </g>
    </g>
    <g id="male" transform="translate(395.136 405.542)">
      <g id="Group_213" data-name="Group 213">
        <g id="Group_201" data-name="Group 201" transform="translate(0 67.073)">
          <path id="Path_275" data-name="Path 275" d="M1175.349,2148.925h-13.882l-1.435-30.182h16.753Z" transform="translate(-1130.439 -1918.974)" fill="#0e0e0e"/>
          <path id="Path_276" data-name="Path 276" d="M2075.222,2148.925H2061.34l-1.435-30.182h16.752Z" transform="translate(-1789.057 -1918.974)" fill="#0e0e0e"/>
          <path id="Path_277" data-name="Path 277" d="M1392.992,1520.994q-2.294,7.12-5.022,14.614H1157.524s-29.74-121.049,0-143.187a19.662,19.662,0,0,1,2.738-1.668c40.054-20.582,200.647-25.414,233.249,1.063.249.2.479.4.7.6C1406.228,1403.45,1416.673,1447.47,1392.992,1520.994Z" transform="translate(-1118.929 -1373.61)" fill="#ea7b00"/>
          <path id="Path_278" data-name="Path 278" d="M1280.635,1746.246H1193.8l8.467-84.84C1217.413,1667.977,1257.723,1702.665,1280.635,1746.246Z" transform="translate(-1155.157 -1584.248)" fill="#982c20"/>
          <path id="Path_279" data-name="Path 279" d="M1829.688,1729.169q-2.294,7.12-5.022,14.614h-83.7c14.394-26.7,49.3-67.13,83.19-85.743Z" transform="translate(-1555.625 -1581.785)" fill="#982c20"/>
          <path id="Path_280" data-name="Path 280" d="M1352.59,1656.978h-31.95a10.706,10.706,0,0,0-10.614,9.3l-10.189,77.046H1113.113l-10.189-77.046a10.706,10.706,0,0,0-10.614-9.3h-31.95a10.706,10.706,0,0,0-10.539,12.587l17.738,128.307h277.834l17.738-128.307A10.706,10.706,0,0,0,1352.59,1656.978Z" transform="translate(-1049.651 -1581.007)" fill="#ea7b00"/>
          <g id="Group_200" data-name="Group 200" transform="translate(55.852 116.836)">
            <g id="Group_199" data-name="Group 199">
              <path id="Path_281" data-name="Path 281" d="M1450.451,1812.8c15.035,5.033,12.1,36.866,0,41.761H1268.056c-13.622-3.515-14.773-45.625,4.873-42.457C1393.156,1834.713,1398.981,1798.65,1450.451,1812.8Z" transform="translate(-1257.978 -1809.403)" fill="#f2b066"/>
            </g>
          </g>
        </g>
        <g id="Group_212" data-name="Group 212" transform="translate(93.429)">
          <path id="Path_282" data-name="Path 282" d="M1457.346,1432.37a169,169,0,0,0,1.27,22.733h85.524l5.065-83.508c-5.081-30.5-18.988-37.894-41-37.894-19.7,0-32.822,16.071-40.8,37.583C1460.517,1389.87,1457.469,1412.513,1457.346,1432.37Z" transform="translate(-1441.468 -1277.328)" fill="#007880"/>
          <path id="Path_283" data-name="Path 283" d="M1457.359,1536.581l30.949-1.863c-17.182-5.625-18.549-32-1.082-48.4l-19.8-12.432C1460.531,1492.47,1457.482,1516.725,1457.359,1536.581Z" transform="translate(-1441.482 -1379.927)" fill="#005459"/>
          <path id="Path_284" data-name="Path 284" d="M1435.388,1741.73h117.5v-39.987H1447.045Z" transform="translate(-1425.401 -1546.698)" fill="#0e0e0e"/>
          <g id="Group_204" data-name="Group 204" transform="translate(86.33 154.792)">
            <g id="Group_202" data-name="Group 202">
              <path id="Path_285" data-name="Path 285" d="M1776.316,1728.35l-31.562,114.681h-24.61c7.791-48.8,6.046-80.525,13.375-121.049C1739.948,1688.718,1783.968,1697.522,1776.316,1728.35Z" transform="translate(-1720.144 -1700.799)" fill="#0e0e0e"/>
            </g>
            <g id="Group_203" data-name="Group 203" transform="translate(0 120.32)">
              <path id="Path_286" data-name="Path 286" d="M1778.956,2188.678c0-.076-.006-.151-.006-.227a15.393,15.393,0,1,1,30.787,0c0,.076,0,.151-.006.227Z" transform="translate(-1763.184 -2166.766)" fill="#b15626"/>
              <path id="Path_287" data-name="Path 287" d="M1754.271,2156.167l-5.6-1.711c-3.693-7.266-19.445-6.366-17.251,2.477-6.181.92-9.432-2.158-9.432-2.158l-1.848,16.725h33.373Z" transform="translate(-1720.144 -2149.588)" fill="#b15626"/>
            </g>
          </g>
          <g id="Group_207" data-name="Group 207" transform="translate(3.026 154.792)">
            <g id="Group_205" data-name="Group 205">
              <path id="Path_288" data-name="Path 288" d="M1410.314,1728.35l31.562,114.681h24.61c-7.791-48.8-6.046-80.525-13.375-121.049C1446.683,1688.718,1402.662,1697.522,1410.314,1728.35Z" transform="translate(-1409.424 -1700.799)" fill="#0e0e0e"/>
            </g>
            <g id="Group_206" data-name="Group 206" transform="translate(10.509 120.32)">
              <path id="Path_289" data-name="Path 289" d="M1479.4,2188.678c0-.076.006-.151.006-.227a15.393,15.393,0,1,0-30.787,0c0,.076,0,.151.006.227Z" transform="translate(-1448.624 -2166.766)" fill="#b15626"/>
              <path id="Path_290" data-name="Path 290" d="M1494.973,2156.167l5.6-1.711c3.693-7.266,19.445-6.366,17.251,2.477,6.181.92,9.432-2.158,9.432-2.158l1.848,16.725h-33.373Z" transform="translate(-1482.547 -2149.588)" fill="#b15626"/>
            </g>
          </g>
          <path id="Path_291" data-name="Path 291" d="M1451.694,1343.708c11.542,7.006,13.188,27.808,7.27,36.1l-32.936,24.536,33.534,17.268-5.448,17.836s-35-2.848-52.135-20.422C1385.528,1402.148,1425.633,1352.581,1451.694,1343.708Z" transform="translate(-1398.136 -1284.652)" fill="#007880"/>
          <path id="Path_292" data-name="Path 292" d="M1658.288,1376.768c-9.873-12.4-3.054-31.555,9.531-30.991,40.986,14.428,53.637,54.491,40.653,72.475-11.124,15.408-60.057,21.341-60.057,21.341v-16.869l34-7.346S1664.884,1388.216,1658.288,1376.768Z" transform="translate(-1581.316 -1286.157)" fill="#007880"/>
          <g id="Group_209" data-name="Group 209" transform="translate(37.256 90.547)">
            <path id="Path_293" data-name="Path 293" d="M1551.075,1639.411c-.636-5.649,2.67-12.714,11.172-14.257,14.849-2.7,20.224,5.452,21.628,11.276a2.466,2.466,0,0,1-2.29,2.981,2.509,2.509,0,0,1-2.39-2.017,5.745,5.745,0,0,0-2.592-4.011c1.535,3.008.894,6.027-3.287,6.027Z" transform="translate(-1547.272 -1580.801)" fill="#f7a594"/>
            <g id="Group_208" data-name="Group 208">
              <path id="Path_294" data-name="Path 294" d="M1574.429,1519.764l11.685-58.6h2.478c-.792,4.036-12.288,62.666-12.647,64.5h-35.022l-3.825-5.9Z" transform="translate(-1537.098 -1461.168)" fill="#99c1ff"/>
              <path id="Path_295" data-name="Path 295" d="M1694.643,1461.168H1781.6l-12.862,64.5H1682Z" transform="translate(-1643.149 -1461.168)" fill="#fff"/>
            </g>
          </g>
          <g id="Group_211" data-name="Group 211" transform="translate(63.396)">
            <g id="Group_210" data-name="Group 210" transform="translate(0 37.495)">
              <path id="Path_296" data-name="Path 296" d="M1634.6,1289.049c0,6.668,19.987,11.089,26.52,4.081a7.387,7.387,0,0,0,1.93-3.955l3.765-16.886-23.87-9-.712,2.207Z" transform="translate(-1634.6 -1263.288)" fill="#f7a594"/>
              <path id="Path_297" data-name="Path 297" d="M1686.541,1297.147l3.765-16.887-22.584-6.081C1661.876,1291.577,1682.737,1305.476,1686.541,1297.147Z" transform="translate(-1658.091 -1271.259)" fill="#f4856d"/>
            </g>
            <path id="Path_298" data-name="Path 298" d="M1658.912,1162.075c-1.257,16.6,11.859,31.215,22.866,31.956s26.16-11.552,27.416-28.149-8.98-30.905-22.865-31.956S1660.169,1145.477,1658.912,1162.075Z" transform="translate(-1652.333 -1131.067)" fill="#f7a594"/>
            <path id="Path_299" data-name="Path 299" d="M1676.26,1127.547c15.219-9.638,23.6-.574,31.174,9.039,5.318,6.747,9.084,11.594,15.7,12.608-12.731,16.059-38.194,5.465-46.216-10.627-.789,9.16-11.587,16.748-19.063,15.872C1655.436,1144.246,1662.5,1123.64,1676.26,1127.547Z" transform="translate(-1651.279 -1123.432)" fill="#0e0e0e"/>
            <circle id="Ellipse_30" data-name="Ellipse 30" cx="6.624" cy="6.624" r="6.624" transform="translate(1.883 25.75) rotate(-9.217)" fill="#f7a594"/>
          </g>
        </g>
      </g>
    </g>
  </g>
</svg>
