<svg xmlns="http://www.w3.org/2000/svg" width="27.5" height="10" viewBox="0 0 27.5 10">
  <path id="Mobile_OTP_Black" data-name="Mobile OTP Black" d="M34.25,50h-6a.75.75,0,1,1,0-1.5h6a.75.75,0,1,1,0,1.5Zm0-7H33.061l.841-.841A.75.75,0,1,0,32.841,41.1L32,41.939V40.75a.75.75,0,1,0-1.5,0v1.19l-.841-.841a.75.75,0,1,0-1.06,1.06l.841.841H28.25a.75.75,0,1,0,0,1.5h1.189l-.841.841A.75.75,0,1,0,29.659,46.4l.841-.841v1.19a.75.75,0,0,0,1.5,0v-1.19l.841.841A.75.75,0,1,0,33.9,45.341l-.841-.841H34.25a.75.75,0,1,0,0-1.5Zm10,7h-6a.75.75,0,1,1,0-1.5h6a.75.75,0,1,1,0,1.5Zm0-7H43.06l.841-.841A.75.75,0,0,0,42.841,41.1L42,41.939V40.75a.75.75,0,1,0-1.5,0v1.19l-.841-.841a.75.75,0,1,0-1.061,1.06l.841.841H38.25a.75.75,0,1,0,0,1.5h1.19l-.841.841A.75.75,0,1,0,39.659,46.4l.841-.841v1.19a.75.75,0,0,0,1.5,0v-1.19l.841.841A.75.75,0,1,0,43.9,45.341l-.841-.841H44.25a.75.75,0,1,0,0-1.5Zm10,7h-6a.75.75,0,0,1,0-1.5h6a.75.75,0,1,1,0,1.5Zm0-7H53.06l.841-.842A.75.75,0,1,0,52.841,41.1L52,41.939V40.75a.75.75,0,1,0-1.5,0v1.189l-.841-.841a.75.75,0,0,0-1.06,1.06l.841.842H48.25a.75.75,0,0,0,0,1.5h1.189l-.841.841a.75.75,0,0,0,1.06,1.061l.841-.841v1.19a.75.75,0,0,0,1.5,0v-1.19l.841.841A.75.75,0,1,0,53.9,45.341l-.841-.841H54.25a.75.75,0,1,0,0-1.5Z" transform="translate(-27.5 -40)" fill="#222"/>
</svg>
