<svg xmlns="http://www.w3.org/2000/svg" width="30.501" height="30.5" viewBox="0 0 30.501 30.5">
  <g id="Referral_Code_grey" data-name="Referral Code grey" transform="translate(-3.277 -3.277)">
    <path id="Path_219" data-name="Path 219" d="M48.984,43a.484.484,0,0,0,.484-.484V30.734a.484.484,0,0,0-.968,0V42.512A.484.484,0,0,0,48.984,43Z" transform="translate(-30.456 -18.097)" fill="#d2d0e1" stroke="#d2d0e1" stroke-linecap="round" stroke-linejoin="round" stroke-width="0.5"/>
    <path id="Path_220" data-name="Path 220" d="M58.655,47.591a2.193,2.193,0,1,0-1.553-.642A2.187,2.187,0,0,0,58.655,47.591Zm-.868-3.063a1.231,1.231,0,1,1-.355.865A1.2,1.2,0,0,1,57.787,44.528Z" transform="translate(-35.847 -26.869)" fill="#d2d0e1" stroke="#d2d0e1" stroke-linecap="round" stroke-linejoin="round" stroke-width="0.5"/>
    <path id="Path_221" data-name="Path 221" d="M30.584,43.844a2.195,2.195,0,1,0,3.105,0A2.2,2.2,0,0,0,30.584,43.844ZM33.363,45.4a1.225,1.225,0,1,1-2.092-.865,1.223,1.223,0,0,1,2.092.865Z" transform="translate(-17.889 -26.869)" fill="#d2d0e1" stroke="#d2d0e1" stroke-linecap="round" stroke-linejoin="round" stroke-width="0.5"/>
    <path id="Path_222" data-name="Path 222" d="M33.385,21.717,15.339,3.67a.481.481,0,0,0-.684,0L11.8,6.524a.481.481,0,0,0,0,.684,3.246,3.246,0,1,1-4.59,4.59.481.481,0,0,0-.684,0L3.67,14.655a.481.481,0,0,0,0,.684L21.717,33.385a.483.483,0,0,0,.684,0l2.853-2.853a.481.481,0,0,0,0-.684,3.246,3.246,0,1,1,4.59-4.59.481.481,0,0,0,.684,0L33.385,22.4A.481.481,0,0,0,33.385,21.717Zm-3.215,2.531a4.214,4.214,0,0,0-5.92,5.92l-2.188,2.188L4.7,15l2.188-2.188a4.214,4.214,0,0,0,5.92-5.92L14.993,4.7,32.356,22.062Z" transform="translate(0 0)" fill="#d2d0e1" stroke="#d2d0e1" stroke-linecap="round" stroke-linejoin="round" stroke-width="0.5"/>
  </g>
</svg>
